<?xml version="1.0" encoding="utf-8"?><!-- Uploaded to: SVG Repo, www.svgrepo.com, Generator: SVG Repo Mixer Tools -->
<svg width="800px" height="800px" viewBox="0 0 24 24" fill="none" xmlns="http://www.w3.org/2000/svg">
<path fill-rule="evenodd" clip-rule="evenodd" d="M15.0501 16.9558C15.4673 18.2075 14.5357 19.5 13.2164 19.5C12.5921 19.5 12.0063 19.1985 11.6435 18.6906L8.47164 14.25L5.85761 14.25L5.10761 13.5L5.10761 6L5.85761 5.25L16.8211 5.25L19.1247 9.85722C19.8088 11.2253 19.5407 12.8776 18.4591 13.9592C17.7927 14.6256 16.8888 15 15.9463 15L14.3982 15L15.0501 16.9558ZM9.60761 13.2596L12.8641 17.8187C12.9453 17.9325 13.0765 18 13.2164 18C13.5119 18 13.7205 17.7105 13.6271 17.4302L12.317 13.5L15.9463 13.5C16.491 13.5 17.0133 13.2836 17.3984 12.8985C18.0235 12.2735 18.1784 11.3186 17.7831 10.528L15.8941 6.75L9.60761 6.75L9.60761 13.2596ZM8.10761 6.75L6.60761 6.75L6.60761 12.75L8.10761 12.75L8.10761 6.75Z" fill="#080341"/>
</svg>