<svg width="24" height="24" viewBox="0 0 24 24" fill="none" xmlns="http://www.w3.org/2000/svg">
<path fill-rule="evenodd" clip-rule="evenodd" d="M5 13C4.44772 13 4 12.5523 4 12L4 4C4 3.44771 4.44771 3 5 3C5.55228 3 6 3.44771 6 4L6 12C6 12.5523 5.55228 13 5 13Z" fill="black"/>
<path fill-rule="evenodd" clip-rule="evenodd" d="M19 21C18.4477 21 18 20.5523 18 20L18 18C18 17.4477 18.4477 17 19 17C19.5523 17 20 17.4477 20 18L20 20C20 20.5523 19.5523 21 19 21Z" fill="black"/>
<path fill-rule="evenodd" clip-rule="evenodd" d="M5 21C4.44772 21 4 20.5523 4 20L4 16C4 15.4477 4.44771 15 5 15C5.55228 15 6 15.4477 6 16L6 20C6 20.5523 5.55228 21 5 21Z" fill="black"/>
<path fill-rule="evenodd" clip-rule="evenodd" d="M19 13C18.4477 13 18 12.5523 18 12L18 4C18 3.44771 18.4477 3 19 3C19.5523 3 20 3.44771 20 4L20 12C20 12.5523 19.5523 13 19 13Z" fill="black"/>
<path fill-rule="evenodd" clip-rule="evenodd" d="M12 8C11.4477 8 11 7.55228 11 7L11 4C11 3.44772 11.4477 3 12 3C12.5523 3 13 3.44772 13 4L13 7C13 7.55228 12.5523 8 12 8Z" fill="black"/>
<path fill-rule="evenodd" clip-rule="evenodd" d="M12 21C11.4477 21 11 20.5523 11 20L11 12C11 11.4477 11.4477 11 12 11C12.5523 11 13 11.4477 13 12L13 20C13 20.5523 12.5523 21 12 21Z" fill="black"/>
<path fill-rule="evenodd" clip-rule="evenodd" d="M5 13C4.44772 13 4 13.4477 4 14C4 14.5523 4.44772 15 5 15C5.55228 15 6 14.5523 6 14C6 13.4477 5.55228 13 5 13ZM2 14C2 12.3431 3.34315 11 5 11C6.65685 11 8 12.3431 8 14C8 15.6569 6.65685 17 5 17C3.34315 17 2 15.6569 2 14Z" fill="black"/>
<path fill-rule="evenodd" clip-rule="evenodd" d="M12 8C11.4477 8 11 8.44772 11 9C11 9.55228 11.4477 10 12 10C12.5523 10 13 9.55228 13 9C13 8.44772 12.5523 8 12 8ZM9 9C9 7.34315 10.3431 6 12 6C13.6569 6 15 7.34315 15 9C15 10.6569 13.6569 12 12 12C10.3431 12 9 10.6569 9 9Z" fill="black"/>
<path fill-rule="evenodd" clip-rule="evenodd" d="M19 14C18.4477 14 18 14.4477 18 15C18 15.5523 18.4477 16 19 16C19.5523 16 20 15.5523 20 15C20 14.4477 19.5523 14 19 14ZM16 15C16 13.3431 17.3431 12 19 12C20.6569 12 22 13.3431 22 15C22 16.6569 20.6569 18 19 18C17.3431 18 16 16.6569 16 15Z" fill="black"/>
</svg>
