<svg width="24" height="24" viewBox="0 0 24 24" fill="none" xmlns="http://www.w3.org/2000/svg">
<path fill-rule="evenodd" clip-rule="evenodd" d="M6.63223 16.3732C8.19493 15.4738 10.0816 15 12.0011 15C13.9206 15 15.8073 15.4738 17.37 16.3732C18.9321 17.2722 20.1199 18.5702 20.6702 20.1106C20.856 20.6307 20.5851 21.203 20.065 21.3888C19.5449 21.5746 18.9726 21.3036 18.7868 20.7835C18.4256 19.7723 17.6046 18.8157 16.3724 18.1066C15.1408 17.3978 13.6038 17 12.0011 17C10.3985 17 8.86143 17.3978 7.62982 18.1066C6.39763 18.8157 5.57668 19.7723 5.21542 20.7835C5.0296 21.3036 4.45736 21.5746 3.93727 21.3888C3.41718 21.203 3.14619 20.6307 3.332 20.1106C3.88234 18.5702 5.07011 17.2721 6.63223 16.3732Z" fill="black"/>
<path fill-rule="evenodd" clip-rule="evenodd" d="M12 5C10.3431 5 9 6.34315 9 8C9 9.65685 10.3431 11 12 11C13.6569 11 15 9.65685 15 8C15 6.34315 13.6569 5 12 5ZM7 8C7 5.23858 9.23858 3 12 3C14.7614 3 17 5.23858 17 8C17 10.7614 14.7614 13 12 13C9.23858 13 7 10.7614 7 8Z" fill="black"/>
</svg>
